{
    "asset" : {
        "generator" : "Khronos glTF Blender I/O v1.6.16",
        "version" : "2.0"
    },
    "scene" : 0,
    "scenes" : [
        {
            "name" : "Scene",
            "nodes" : [
                0,
                1,
                2,
                3,
                4,
                5,
                6,
                7,
                8
            ]
        }
    ],
    "nodes" : [
        {
            "mesh" : 0,
            "name" : "Sphere.006",
            "rotation" : [
                0.008980492129921913,
                0,
                0,
                0.9999597072601318
            ],
            "translation" : [
                0,
                -33.649513244628906,
                3.152506451442605e-06
            ]
        },
        {
            "name" : "Point",
            "scale" : [
                75.53881072998047,
                75.53881072998047,
                75.53881072998047
            ],
            "translation" : [
                -50.460182189941406,
                -33.891597747802734,
                0.21350780129432678
            ]
        },
        {
            "name" : "Point.001",
            "scale" : [
                75.53881072998047,
                75.53881072998047,
                75.53881072998047
            ],
            "translation" : [
                62.33391571044922,
                -33.859066009521484,
                13.815204620361328
            ]
        },
        {
            "name" : "Point.002",
            "scale" : [
                75.53881072998047,
                75.53881072998047,
                75.53881072998047
            ],
            "translation" : [
                -0.394287109375,
                -33.859066009521484,
                70.56929016113281
            ]
        },
        {
            "name" : "Point.003",
            "scale" : [
                75.53881072998047,
                75.53881072998047,
                75.53881072998047
            ],
            "translation" : [
                13.545312881469727,
                -33.859066009521484,
                -59.86553955078125
            ]
        },
        {
            "mesh" : 1,
            "name" : "saturn",
            "scale" : [
                5.469043254852295,
                5.469043254852295,
                5.469043254852295
            ],
            "translation" : [
                -60.76150131225586,
                -34.2060432434082,
                0.005622684955596924
            ]
        },
        {
            "mesh" : 2,
            "name" : "moon",
            "rotation" : [
                0.6911351680755615,
                -0.29099419713020325,
                0.14138486981391907,
                0.6462699770927429
            ],
            "scale" : [
                6.827306270599365,
                6.827306270599365,
                6.827306270599365
            ],
            "translation" : [
                1.4396331310272217,
                -33.90496826171875,
                -60.23903274536133
            ]
        },
        {
            "mesh" : 3,
            "name" : "satelite",
            "rotation" : [
                -0.5573564171791077,
                -0.7310267686843872,
                0.2708861827850342,
                -0.2856122851371765
            ],
            "scale" : [
                -1.4240145683288574,
                1.424014687538147,
                1.4240145683288574
            ],
            "translation" : [
                60.51958084106445,
                -33.559207916259766,
                0.6398437023162842
            ]
        },
        {
            "mesh" : 4,
            "name" : "star",
            "rotation" : [
                0,
                0.6906002759933472,
                0,
                0.723236620426178
            ],
            "scale" : [
                5.469043254852295,
                5.469043254852295,
                5.469043254852295
            ],
            "translation" : [
                -0.509735107421875,
                -33.32500457763672,
                60.895957946777344
            ]
        }
    ],
    "animations" : [
        {
            "channels" : [
                {
                    "sampler" : 0,
                    "target" : {
                        "node" : 0,
                        "path" : "translation"
                    }
                },
                {
                    "sampler" : 1,
                    "target" : {
                        "node" : 0,
                        "path" : "rotation"
                    }
                },
                {
                    "sampler" : 2,
                    "target" : {
                        "node" : 0,
                        "path" : "scale"
                    }
                }
            ],
            "name" : "Sphere.006Action.002",
            "samplers" : [
                {
                    "input" : 28,
                    "interpolation" : "STEP",
                    "output" : 29
                },
                {
                    "input" : 30,
                    "interpolation" : "LINEAR",
                    "output" : 31
                },
                {
                    "input" : 28,
                    "interpolation" : "STEP",
                    "output" : 32
                }
            ]
        }
    ],
    "materials" : [
        {
            "doubleSided" : true,
            "name" : "Material.002",
            "pbrMetallicRoughness" : {}
        },
        {
            "doubleSided" : true,
            "name" : "SATURN",
            "pbrMetallicRoughness" : {}
        },
        {
            "doubleSided" : true,
            "name" : "SATURN RING",
            "pbrMetallicRoughness" : {}
        },
        {
            "doubleSided" : true,
            "name" : "PINKSTAR",
            "pbrMetallicRoughness" : {
                "baseColorFactor" : [
                    0.001864246092736721,
                    0.8000000715255737,
                    0.777145266532898,
                    1
                ],
                "metallicFactor" : 0,
                "roughnessFactor" : 0.5
            }
        },
        {
            "doubleSided" : true,
            "name" : "CHEESE",
            "pbrMetallicRoughness" : {}
        },
        {
            "doubleSided" : true,
            "name" : "GOLD",
            "pbrMetallicRoughness" : {
                "baseColorFactor" : [
                    0.8000000715255737,
                    0.2774074971675873,
                    0.056242357939481735,
                    1
                ],
                "metallicFactor" : 0.8055555820465088,
                "roughnessFactor" : 0.5
            }
        }
    ],
    "meshes" : [
        {
            "name" : "Sphere.007",
            "primitives" : [
                {
                    "attributes" : {
                        "POSITION" : 0,
                        "NORMAL" : 1,
                        "TEXCOORD_0" : 2
                    },
                    "indices" : 3,
                    "material" : 0
                }
            ]
        },
        {
            "name" : "Sphere",
            "primitives" : [
                {
                    "attributes" : {
                        "POSITION" : 4,
                        "NORMAL" : 5,
                        "TEXCOORD_0" : 6
                    },
                    "indices" : 7,
                    "material" : 1
                },
                {
                    "attributes" : {
                        "POSITION" : 8,
                        "NORMAL" : 9,
                        "TEXCOORD_0" : 10
                    },
                    "indices" : 11,
                    "material" : 2
                },
                {
                    "attributes" : {
                        "POSITION" : 12,
                        "NORMAL" : 13,
                        "TEXCOORD_0" : 14
                    },
                    "indices" : 15,
                    "material" : 3
                }
            ]
        },
        {
            "name" : "Circle",
            "primitives" : [
                {
                    "attributes" : {
                        "POSITION" : 16,
                        "NORMAL" : 17,
                        "TEXCOORD_0" : 18
                    },
                    "indices" : 19,
                    "material" : 4
                }
            ]
        },
        {
            "name" : "Cylinder.002",
            "primitives" : [
                {
                    "attributes" : {
                        "POSITION" : 20,
                        "NORMAL" : 21,
                        "TEXCOORD_0" : 22
                    },
                    "indices" : 23,
                    "material" : 5
                }
            ]
        },
        {
            "name" : "Cylinder.003",
            "primitives" : [
                {
                    "attributes" : {
                        "POSITION" : 24,
                        "NORMAL" : 25,
                        "TEXCOORD_0" : 26
                    },
                    "indices" : 27,
                    "material" : 3
                }
            ]
        }
    ],
    "accessors" : [
        {
            "bufferView" : 0,
            "componentType" : 5126,
            "count" : 638,
            "max" : [
                22.97243309020996,
                22.910362243652344,
                22.861181259155273
            ],
            "min" : [
                -22.972429275512695,
                -22.910358428955078,
                -22.861183166503906
            ],
            "type" : "VEC3"
        },
        {
            "bufferView" : 1,
            "componentType" : 5126,
            "count" : 638,
            "type" : "VEC3"
        },
        {
            "bufferView" : 2,
            "componentType" : 5126,
            "count" : 638,
            "type" : "VEC2"
        },
        {
            "bufferView" : 3,
            "componentType" : 5123,
            "count" : 2880,
            "type" : "SCALAR"
        },
        {
            "bufferView" : 4,
            "componentType" : 5126,
            "count" : 146,
            "max" : [
                1,
                1,
                1
            ],
            "min" : [
                -0.9999998211860657,
                -1,
                -1
            ],
            "type" : "VEC3"
        },
        {
            "bufferView" : 5,
            "componentType" : 5126,
            "count" : 146,
            "type" : "VEC3"
        },
        {
            "bufferView" : 6,
            "componentType" : 5126,
            "count" : 146,
            "type" : "VEC2"
        },
        {
            "bufferView" : 7,
            "componentType" : 5123,
            "count" : 792,
            "type" : "SCALAR"
        },
        {
            "bufferView" : 8,
            "componentType" : 5126,
            "count" : 96,
            "max" : [
                1.9654490947723389,
                0.04607469215989113,
                1.9733669757843018
            ],
            "min" : [
                -1.9610865116119385,
                -0.03440418839454651,
                -1.9531689882278442
            ],
            "type" : "VEC3"
        },
        {
            "bufferView" : 9,
            "componentType" : 5126,
            "count" : 96,
            "type" : "VEC3"
        },
        {
            "bufferView" : 10,
            "componentType" : 5126,
            "count" : 96,
            "type" : "VEC2"
        },
        {
            "bufferView" : 11,
            "componentType" : 5123,
            "count" : 360,
            "type" : "SCALAR"
        },
        {
            "bufferView" : 12,
            "componentType" : 5126,
            "count" : 24,
            "max" : [
                1.9654490947723389,
                -0.03440418839454651,
                1.9733669757843018
            ],
            "min" : [
                -1.9610865116119385,
                -0.03440418839454651,
                -1.9531689882278442
            ],
            "type" : "VEC3"
        },
        {
            "bufferView" : 13,
            "componentType" : 5126,
            "count" : 24,
            "type" : "VEC3"
        },
        {
            "bufferView" : 14,
            "componentType" : 5126,
            "count" : 24,
            "type" : "VEC2"
        },
        {
            "bufferView" : 15,
            "componentType" : 5123,
            "count" : 72,
            "type" : "SCALAR"
        },
        {
            "bufferView" : 16,
            "componentType" : 5126,
            "count" : 1135,
            "max" : [
                0.8759169578552246,
                0.4268914461135864,
                1
            ],
            "min" : [
                -1,
                0,
                -1
            ],
            "type" : "VEC3"
        },
        {
            "bufferView" : 17,
            "componentType" : 5126,
            "count" : 1135,
            "type" : "VEC3"
        },
        {
            "bufferView" : 18,
            "componentType" : 5126,
            "count" : 1135,
            "type" : "VEC2"
        },
        {
            "bufferView" : 19,
            "componentType" : 5123,
            "count" : 1824,
            "type" : "SCALAR"
        },
        {
            "bufferView" : 20,
            "componentType" : 5126,
            "count" : 284,
            "max" : [
                3.8639414310455322,
                9.026508331298828,
                3.8515024185180664
            ],
            "min" : [
                -3.974283456802368,
                -3.0808610916137695,
                -3.1403965950012207
            ],
            "type" : "VEC3"
        },
        {
            "bufferView" : 21,
            "componentType" : 5126,
            "count" : 284,
            "type" : "VEC3"
        },
        {
            "bufferView" : 22,
            "componentType" : 5126,
            "count" : 284,
            "type" : "VEC2"
        },
        {
            "bufferView" : 23,
            "componentType" : 5123,
            "count" : 1368,
            "type" : "SCALAR"
        },
        {
            "bufferView" : 24,
            "componentType" : 5126,
            "count" : 222,
            "max" : [
                0.3844195008277893,
                1.4749199151992798,
                1.3754520416259766
            ],
            "min" : [
                -0.3835532069206238,
                -1.560982584953308,
                -1.5953426361083984
            ],
            "type" : "VEC3"
        },
        {
            "bufferView" : 25,
            "componentType" : 5126,
            "count" : 222,
            "type" : "VEC3"
        },
        {
            "bufferView" : 26,
            "componentType" : 5126,
            "count" : 222,
            "type" : "VEC2"
        },
        {
            "bufferView" : 27,
            "componentType" : 5123,
            "count" : 960,
            "type" : "SCALAR"
        },
        {
            "bufferView" : 28,
            "componentType" : 5126,
            "count" : 1,
            "max" : [
                0.041666666666666664
            ],
            "min" : [
                0.041666666666666664
            ],
            "type" : "SCALAR"
        },
        {
            "bufferView" : 29,
            "componentType" : 5126,
            "count" : 1,
            "type" : "VEC3"
        },
        {
            "bufferView" : 30,
            "componentType" : 5126,
            "count" : 90,
            "max" : [
                3.75
            ],
            "min" : [
                0.041666666666666664
            ],
            "type" : "SCALAR"
        },
        {
            "bufferView" : 31,
            "componentType" : 5126,
            "count" : 90,
            "type" : "VEC4"
        },
        {
            "bufferView" : 32,
            "componentType" : 5126,
            "count" : 1,
            "type" : "VEC3"
        }
    ],
    "bufferViews" : [
        {
            "buffer" : 0,
            "byteLength" : 7656,
            "byteOffset" : 0
        },
        {
            "buffer" : 0,
            "byteLength" : 7656,
            "byteOffset" : 7656
        },
        {
            "buffer" : 0,
            "byteLength" : 5104,
            "byteOffset" : 15312
        },
        {
            "buffer" : 0,
            "byteLength" : 5760,
            "byteOffset" : 20416
        },
        {
            "buffer" : 0,
            "byteLength" : 1752,
            "byteOffset" : 26176
        },
        {
            "buffer" : 0,
            "byteLength" : 1752,
            "byteOffset" : 27928
        },
        {
            "buffer" : 0,
            "byteLength" : 1168,
            "byteOffset" : 29680
        },
        {
            "buffer" : 0,
            "byteLength" : 1584,
            "byteOffset" : 30848
        },
        {
            "buffer" : 0,
            "byteLength" : 1152,
            "byteOffset" : 32432
        },
        {
            "buffer" : 0,
            "byteLength" : 1152,
            "byteOffset" : 33584
        },
        {
            "buffer" : 0,
            "byteLength" : 768,
            "byteOffset" : 34736
        },
        {
            "buffer" : 0,
            "byteLength" : 720,
            "byteOffset" : 35504
        },
        {
            "buffer" : 0,
            "byteLength" : 288,
            "byteOffset" : 36224
        },
        {
            "buffer" : 0,
            "byteLength" : 288,
            "byteOffset" : 36512
        },
        {
            "buffer" : 0,
            "byteLength" : 192,
            "byteOffset" : 36800
        },
        {
            "buffer" : 0,
            "byteLength" : 144,
            "byteOffset" : 36992
        },
        {
            "buffer" : 0,
            "byteLength" : 13620,
            "byteOffset" : 37136
        },
        {
            "buffer" : 0,
            "byteLength" : 13620,
            "byteOffset" : 50756
        },
        {
            "buffer" : 0,
            "byteLength" : 9080,
            "byteOffset" : 64376
        },
        {
            "buffer" : 0,
            "byteLength" : 3648,
            "byteOffset" : 73456
        },
        {
            "buffer" : 0,
            "byteLength" : 3408,
            "byteOffset" : 77104
        },
        {
            "buffer" : 0,
            "byteLength" : 3408,
            "byteOffset" : 80512
        },
        {
            "buffer" : 0,
            "byteLength" : 2272,
            "byteOffset" : 83920
        },
        {
            "buffer" : 0,
            "byteLength" : 2736,
            "byteOffset" : 86192
        },
        {
            "buffer" : 0,
            "byteLength" : 2664,
            "byteOffset" : 88928
        },
        {
            "buffer" : 0,
            "byteLength" : 2664,
            "byteOffset" : 91592
        },
        {
            "buffer" : 0,
            "byteLength" : 1776,
            "byteOffset" : 94256
        },
        {
            "buffer" : 0,
            "byteLength" : 1920,
            "byteOffset" : 96032
        },
        {
            "buffer" : 0,
            "byteLength" : 4,
            "byteOffset" : 97952
        },
        {
            "buffer" : 0,
            "byteLength" : 12,
            "byteOffset" : 97956
        },
        {
            "buffer" : 0,
            "byteLength" : 360,
            "byteOffset" : 97968
        },
        {
            "buffer" : 0,
            "byteLength" : 1440,
            "byteOffset" : 98328
        },
        {
            "buffer" : 0,
            "byteLength" : 12,
            "byteOffset" : 99768
        }
    ],
    "buffers" : [
        {
            "byteLength" : 99780,
            "uri" : "data:application/octet-stream;base64,"
        }
    ]
}
